<svg data-v-fde0c5aa="" xmlns="http://www.w3.org/2000/svg" viewBox="0 0 300 300" class="iconLeft"><!----><defs data-v-fde0c5aa=""><!----></defs><rect data-v-fde0c5aa="" fill="transparent" x="0" y="0" width="300px" height="300px" class="logo-background-square"></rect><defs data-v-fde0c5aa=""><!----></defs><g data-v-fde0c5aa="" id="2a2cb177-392f-4436-b797-b2798050ec8f" fill="#000000" transform="matrix(2.433500289916992,0,0,2.433500289916992,83.15753928745458,129.96012439649064)"><path d="M6.67 8.09L6.67 8.09L6.67 8.09Q7.06 8.20 7.45 8.40L7.45 8.40L7.45 8.40Q7.83 8.61 8.13 8.90L8.13 8.90L8.13 8.90Q8.43 9.20 8.61 9.59L8.61 9.59L8.61 9.59Q8.80 9.98 8.80 10.46L8.80 10.46L8.80 10.46Q8.80 11.03 8.51 11.60L8.51 11.60L8.51 11.60Q8.22 12.17 7.67 12.63L7.67 12.63L7.67 12.63Q7.12 13.08 6.30 13.36L6.30 13.36L6.30 13.36Q5.49 13.64 4.44 13.64L4.44 13.64L1.33 13.64L1.33 3.63L4.76 3.63L4.76 3.63Q5.65 3.63 6.33 3.80L6.33 3.80L6.33 3.80Q7 3.98 7.45 4.28L7.45 4.28L7.45 4.28Q7.90 4.58 8.13 4.98L8.13 4.98L8.13 4.98Q8.35 5.37 8.35 5.82L8.35 5.82L8.35 5.82Q8.35 6.18 8.22 6.50L8.22 6.50L8.22 6.50Q8.08 6.82 7.85 7.10L7.85 7.10L7.85 7.10Q7.62 7.38 7.31 7.63L7.31 7.63L7.31 7.63Q7 7.88 6.67 8.09ZM3.38 9.09L3.38 12.30L4.61 12.30L4.61 12.30Q5.15 12.30 5.54 12.15L5.54 12.15L5.54 12.15Q5.93 12.00 6.18 11.77L6.18 11.77L6.18 11.77Q6.43 11.53 6.55 11.23L6.55 11.23L6.55 11.23Q6.67 10.92 6.67 10.60L6.67 10.60L6.67 10.60Q6.67 10.21 6.51 9.92L6.51 9.92L6.51 9.92Q6.35 9.63 6.07 9.45L6.07 9.45L6.07 9.45Q5.80 9.26 5.41 9.18L5.41 9.18L5.41 9.18Q5.02 9.09 4.56 9.09L4.56 9.09L3.38 9.09ZM3.38 7.81L5.49 7.81L5.49 7.81Q5.86 7.56 6.09 7.18L6.09 7.18L6.09 7.18Q6.32 6.80 6.32 6.33L6.32 6.33L6.32 6.33Q6.32 6.02 6.20 5.77L6.20 5.77L6.20 5.77Q6.08 5.52 5.84 5.34L5.84 5.34L5.84 5.34Q5.61 5.17 5.28 5.07L5.28 5.07L5.28 5.07Q4.95 4.98 4.53 4.98L4.53 4.98L3.38 4.98L3.38 7.81ZM14.54 12.58L14.54 12.58L14.54 12.58Q14.35 12.75 14.09 12.96L14.09 12.96L14.09 12.96Q13.84 13.17 13.53 13.35L13.53 13.35L13.53 13.35Q13.22 13.53 12.87 13.65L12.87 13.65L12.87 13.65Q12.51 13.78 12.12 13.78L12.12 13.78L12.12 13.78Q11.69 13.78 11.34 13.62L11.34 13.62L11.34 13.62Q10.99 13.45 10.74 13.18L10.74 13.18L10.74 13.18Q10.49 12.90 10.36 12.53L10.36 12.53L10.36 12.53Q10.23 12.16 10.23 11.76L10.23 11.76L10.23 11.76Q10.23 11.27 10.44 10.82L10.44 10.82L10.44 10.82Q10.65 10.38 11.11 10.04L11.11 10.04L11.11 10.04Q11.57 9.69 12.31 9.49L12.31 9.49L12.31 9.49Q13.05 9.29 14.10 9.29L14.10 9.29L14.49 9.29L14.49 8.80L14.49 8.80Q14.49 8.22 14.12 7.90L14.12 7.90L14.12 7.90Q13.75 7.59 13.15 7.59L13.15 7.59L13.15 7.59Q12.91 7.59 12.63 7.65L12.63 7.65L12.63 7.65Q12.35 7.70 12.07 7.81L12.07 7.81L12.07 7.81Q11.79 7.92 11.53 8.06L11.53 8.06L11.53 8.06Q11.27 8.20 11.05 8.36L11.05 8.36L10.92 8.29L10.56 7L10.56 7Q11.42 6.58 12.16 6.42L12.16 6.42L12.16 6.42Q12.91 6.26 13.60 6.26L13.60 6.26L13.60 6.26Q14.25 6.26 14.78 6.39L14.78 6.39L14.78 6.39Q15.32 6.51 15.70 6.78L15.70 6.78L15.70 6.78Q16.08 7.05 16.29 7.49L16.29 7.49L16.29 7.49Q16.50 7.92 16.50 8.52L16.50 8.52L16.50 11.66L16.50 11.66Q16.50 11.77 16.52 11.89L16.52 11.89L16.52 11.89Q16.54 12.02 16.59 12.12L16.59 12.12L16.59 12.12Q16.65 12.22 16.74 12.29L16.74 12.29L16.74 12.29Q16.84 12.35 16.99 12.35L16.99 12.35L16.99 12.35Q17.09 12.35 17.21 12.33L17.21 12.33L17.21 12.33Q17.32 12.31 17.45 12.26L17.45 12.26L17.45 13.17L17.45 13.17Q17.04 13.46 16.64 13.62L16.64 13.62L16.64 13.62Q16.23 13.78 15.85 13.78L15.85 13.78L15.85 13.78Q15.57 13.78 15.37 13.69L15.37 13.69L15.37 13.69Q15.16 13.60 15.00 13.44L15.00 13.44L15.00 13.44Q14.85 13.28 14.73 13.06L14.73 13.06L14.73 13.06Q14.62 12.84 14.54 12.58ZM14.49 11.70L14.49 10.11L14.14 10.11L14.14 10.11Q13.51 10.11 13.11 10.20L13.11 10.20L13.11 10.20Q12.72 10.29 12.50 10.45L12.50 10.45L12.50 10.45Q12.28 10.61 12.20 10.83L12.20 10.83L12.20 10.83Q12.12 11.05 12.12 11.30L12.12 11.30L12.12 11.30Q12.12 11.57 12.20 11.76L12.20 11.76L12.20 11.76Q12.27 11.96 12.40 12.09L12.40 12.09L12.40 12.09Q12.54 12.22 12.71 12.29L12.71 12.29L12.71 12.29Q12.89 12.35 13.10 12.35L13.10 12.35L13.10 12.35Q13.39 12.35 13.73 12.22L13.73 12.22L13.73 12.22Q14.07 12.08 14.49 11.70L14.49 11.70ZM18.82 13.64L18.82 6.40L20.49 6.40L20.75 8.54L20.75 8.54Q20.86 8.35 20.96 8.15L20.96 8.15L20.96 8.15Q21.07 7.96 21.17 7.78L21.17 7.78L21.17 7.78Q21.27 7.61 21.35 7.47L21.35 7.47L21.35 7.47Q21.43 7.33 21.49 7.26L21.49 7.26L21.49 7.26Q21.63 7.05 21.80 6.86L21.80 6.86L21.80 6.86Q21.96 6.68 22.17 6.55L22.17 6.55L22.17 6.55Q22.37 6.41 22.62 6.34L22.62 6.34L22.62 6.34Q22.87 6.26 23.16 6.26L23.16 6.26L23.16 6.26Q23.36 6.26 23.58 6.31L23.58 6.31L23.58 6.31Q23.80 6.36 23.97 6.47L23.97 6.47L23.75 8.30L23.75 8.30Q23.62 8.26 23.41 8.25L23.41 8.25L23.41 8.25Q23.21 8.24 23.06 8.24L23.06 8.24L23.06 8.24Q22.67 8.24 22.35 8.34L22.35 8.34L22.35 8.34Q22.02 8.44 21.75 8.62L21.75 8.62L21.75 8.62Q21.47 8.79 21.25 9.03L21.25 9.03L21.25 9.03Q21.02 9.27 20.84 9.54L20.84 9.54L20.84 13.64L18.82 13.64ZM33.24 11.53L33.24 7.85L33.24 7.85Q32.85 7.68 32.55 7.64L32.55 7.64L32.55 7.64Q32.25 7.59 32.05 7.59L32.05 7.59L32.05 7.59Q31.54 7.59 31.15 7.78L31.15 7.78L31.15 7.78Q30.77 7.98 30.51 8.32L30.51 8.32L30.51 8.32Q30.25 8.65 30.12 9.11L30.12 9.11L30.12 9.11Q29.98 9.57 29.98 10.09L29.98 10.09L29.98 10.09Q29.98 10.58 30.10 10.99L30.10 10.99L30.10 10.99Q30.21 11.40 30.43 11.71L30.43 11.71L30.43 11.71Q30.64 12.01 30.94 12.18L30.94 12.18L30.94 12.18Q31.23 12.35 31.60 12.35L31.60 12.35L31.60 12.35Q32.03 12.35 32.45 12.13L32.45 12.13L32.45 12.13Q32.87 11.92 33.24 11.53L33.24 11.53ZM33.24 6.42L33.24 2.69L35.25 2.69L35.25 13.64L33.56 13.64L33.32 12.48L33.32 12.48Q33.07 12.70 32.79 12.93L32.79 12.93L32.79 12.93Q32.51 13.16 32.19 13.35L32.19 13.35L32.19 13.35Q31.86 13.54 31.49 13.66L31.49 13.66L31.49 13.66Q31.12 13.78 30.71 13.78L30.71 13.78L30.71 13.78Q30.05 13.78 29.53 13.49L29.53 13.49L29.53 13.49Q29.01 13.20 28.65 12.72L28.65 12.72L28.65 12.72Q28.29 12.24 28.10 11.62L28.10 11.62L28.10 11.62Q27.90 11.00 27.90 10.34L27.90 10.34L27.90 10.34Q27.90 9.47 28.22 8.73L28.22 8.73L28.22 8.73Q28.54 7.98 29.09 7.43L29.09 7.43L29.09 7.43Q29.65 6.88 30.39 6.57L30.39 6.57L30.39 6.57Q31.13 6.26 31.99 6.26L31.99 6.26L31.99 6.26Q32.35 6.26 32.69 6.31L32.69 6.31L32.69 6.31Q33.02 6.36 33.24 6.42L33.24 6.42ZM40.59 13.78L40.59 13.78L40.59 13.78Q39.70 13.78 39.02 13.49L39.02 13.49L39.02 13.49Q38.35 13.21 37.90 12.72L37.90 12.72L37.90 12.72Q37.44 12.23 37.21 11.58L37.21 11.58L37.21 11.58Q36.98 10.94 36.98 10.22L36.98 10.22L36.98 10.22Q36.98 9.39 37.28 8.67L37.28 8.67L37.28 8.67Q37.58 7.95 38.12 7.41L38.12 7.41L38.12 7.41Q38.66 6.88 39.41 6.57L39.41 6.57L39.41 6.57Q40.17 6.26 41.08 6.26L41.08 6.26L41.08 6.26Q41.97 6.26 42.65 6.55L42.65 6.55L42.65 6.55Q43.33 6.84 43.78 7.32L43.78 7.32L43.78 7.32Q44.24 7.81 44.47 8.46L44.47 8.46L44.47 8.46Q44.71 9.11 44.71 9.84L44.71 9.84L44.71 9.84Q44.71 10.68 44.40 11.40L44.40 11.40L44.40 11.40Q44.10 12.12 43.56 12.65L43.56 12.65L43.56 12.65Q43.01 13.18 42.26 13.48L42.26 13.48L42.26 13.48Q41.50 13.78 40.59 13.78ZM40.89 12.46L40.89 12.46L40.89 12.46Q41.26 12.46 41.58 12.30L41.58 12.30L41.58 12.30Q41.90 12.14 42.13 11.84L42.13 11.84L42.13 11.84Q42.36 11.54 42.49 11.11L42.49 11.11L42.49 11.11Q42.62 10.68 42.62 10.13L42.62 10.13L42.62 10.13Q42.62 9.61 42.49 9.15L42.49 9.15L42.49 9.15Q42.37 8.68 42.14 8.34L42.14 8.34L42.14 8.34Q41.90 7.99 41.57 7.79L41.57 7.79L41.57 7.79Q41.23 7.59 40.80 7.59L40.80 7.59L40.80 7.59Q40.41 7.59 40.09 7.75L40.09 7.75L40.09 7.75Q39.77 7.92 39.55 8.22L39.55 8.22L39.55 8.22Q39.32 8.53 39.19 8.97L39.19 8.97L39.19 8.97Q39.07 9.40 39.07 9.93L39.07 9.93L39.07 9.93Q39.07 10.47 39.19 10.93L39.19 10.93L39.19 10.93Q39.32 11.40 39.56 11.73L39.56 11.73L39.56 11.73Q39.79 12.07 40.13 12.26L40.13 12.26L40.13 12.26Q40.46 12.46 40.89 12.46ZM55.25 13.64L49.56 13.64L49.56 3.63L51.62 3.63L51.62 12.30L55.50 12.30L55.25 13.64ZM63.31 12.01L63.31 12.93L63.31 12.93Q62.97 13.17 62.60 13.33L62.60 13.33L62.60 13.33Q62.23 13.49 61.86 13.59L61.86 13.59L61.86 13.59Q61.48 13.69 61.11 13.74L61.11 13.74L61.11 13.74Q60.74 13.78 60.41 13.78L60.41 13.78L60.41 13.78Q59.59 13.78 58.91 13.55L58.91 13.55L58.91 13.55Q58.24 13.32 57.75 12.87L57.75 12.87L57.75 12.87Q57.26 12.41 57.00 11.76L57.00 11.76L57.00 11.76Q56.73 11.11 56.73 10.27L56.73 10.27L56.73 10.27Q56.73 9.34 57.05 8.60L57.05 8.60L57.05 8.60Q57.37 7.85 57.90 7.33L57.90 7.33L57.90 7.33Q58.43 6.82 59.13 6.54L59.13 6.54L59.13 6.54Q59.83 6.26 60.60 6.26L60.60 6.26L60.60 6.26Q61.25 6.26 61.80 6.47L61.80 6.47L61.80 6.47Q62.36 6.67 62.76 7.08L62.76 7.08L62.76 7.08Q63.16 7.49 63.39 8.09L63.39 8.09L63.39 8.09Q63.62 8.69 63.62 9.48L63.62 9.48L63.62 9.48Q63.62 9.71 63.59 9.93L63.59 9.93L63.59 9.93Q63.57 10.14 63.54 10.32L63.54 10.32L58.81 10.32L58.81 10.32Q58.81 10.83 58.99 11.22L58.99 11.22L58.99 11.22Q59.17 11.60 59.50 11.85L59.50 11.85L59.50 11.85Q59.83 12.11 60.30 12.23L60.30 12.23L60.30 12.23Q60.77 12.35 61.34 12.35L61.34 12.35L61.34 12.35Q61.52 12.35 61.76 12.34L61.76 12.34L61.76 12.34Q61.99 12.33 62.25 12.29L62.25 12.29L62.25 12.29Q62.51 12.25 62.78 12.18L62.78 12.18L62.78 12.18Q63.05 12.11 63.31 12.01L63.31 12.01ZM58.81 9.50L61.77 9.50L61.77 9.50Q61.77 9.02 61.66 8.66L61.66 8.66L61.66 8.66Q61.55 8.30 61.36 8.06L61.36 8.06L61.36 8.06Q61.17 7.82 60.91 7.70L60.91 7.70L60.91 7.70Q60.65 7.59 60.35 7.59L60.35 7.59L60.35 7.59Q60.01 7.59 59.73 7.72L59.73 7.72L59.73 7.72Q59.45 7.86 59.25 8.11L59.25 8.11L59.25 8.11Q59.04 8.37 58.93 8.72L58.93 8.72L58.93 8.72Q58.81 9.06 58.81 9.50L58.81 9.50ZM60.87 5.17L59.36 5.17L60.74 2.69L62.79 2.69L60.87 5.17ZM68.56 13.78L68.56 13.78L68.56 13.78Q67.66 13.78 66.99 13.49L66.99 13.49L66.99 13.49Q66.32 13.21 65.86 12.72L65.86 12.72L65.86 12.72Q65.41 12.23 65.18 11.58L65.18 11.58L65.18 11.58Q64.95 10.94 64.95 10.22L64.95 10.22L64.95 10.22Q64.95 9.39 65.25 8.67L65.25 8.67L65.25 8.67Q65.54 7.95 66.08 7.41L66.08 7.41L66.08 7.41Q66.62 6.88 67.38 6.57L67.38 6.57L67.38 6.57Q68.13 6.26 69.05 6.26L69.05 6.26L69.05 6.26Q69.94 6.26 70.62 6.55L70.62 6.55L70.62 6.55Q71.29 6.84 71.75 7.32L71.75 7.32L71.75 7.32Q72.21 7.81 72.44 8.46L72.44 8.46L72.44 8.46Q72.67 9.11 72.67 9.84L72.67 9.84L72.67 9.84Q72.67 10.68 72.37 11.40L72.37 11.40L72.37 11.40Q72.06 12.12 71.52 12.65L71.52 12.65L71.52 12.65Q70.98 13.18 70.22 13.48L70.22 13.48L70.22 13.48Q69.47 13.78 68.56 13.78ZM68.85 12.46L68.85 12.46L68.85 12.46Q69.23 12.46 69.55 12.30L69.55 12.30L69.55 12.30Q69.86 12.14 70.10 11.84L70.10 11.84L70.10 11.84Q70.33 11.54 70.45 11.11L70.45 11.11L70.45 11.11Q70.58 10.68 70.58 10.13L70.58 10.13L70.58 10.13Q70.58 9.61 70.46 9.15L70.46 9.15L70.46 9.15Q70.33 8.68 70.10 8.34L70.10 8.34L70.10 8.34Q69.87 7.99 69.53 7.79L69.53 7.79L69.53 7.79Q69.19 7.59 68.76 7.59L68.76 7.59L68.76 7.59Q68.37 7.59 68.06 7.75L68.06 7.75L68.06 7.75Q67.74 7.92 67.51 8.22L67.51 8.22L67.51 8.22Q67.29 8.53 67.16 8.97L67.16 8.97L67.16 8.97Q67.03 9.40 67.03 9.93L67.03 9.93L67.03 9.93Q67.03 10.47 67.16 10.93L67.16 10.93L67.16 10.93Q67.29 11.40 67.52 11.73L67.52 11.73L67.52 11.73Q67.76 12.07 68.09 12.26L68.09 12.26L68.09 12.26Q68.43 12.46 68.85 12.46Z"></path></g><defs data-v-fde0c5aa=""><linearGradient data-v-fde0c5aa="" gradientTransform="rotate(25)" id="fb48228d-2772-4f91-b9e7-7e5e004bb8c6" x1="0%" y1="0%" x2="100%" y2="0%"><stop data-v-fde0c5aa="" offset="0%" stop-color="#6A4F4C" stop-opacity="1"></stop><stop data-v-fde0c5aa="" offset="100%" stop-color="#A0A29B" stop-opacity="1"></stop></linearGradient></defs><g data-v-fde0c5aa="" id="b82ea460-1155-4cc0-b00d-d5080a68902c" stroke="none" fill="url(#fb48228d-2772-4f91-b9e7-7e5e004bb8c6)" transform="matrix(0.4048112630844116,0,0,0.4048112630844116,40.00000057908717,129.7595118068211)"><path d="M77.474 22.956c-2.254-1.503-5.343-2.814-9.173-3.896-7.293-2.055-16.9-3.189-27.057-3.189-7.394 0-14.493.604-20.625 1.724l-4.911-15.82c-.497-1.602-3.04-2.237-5.68-1.417-2.64.82-4.376 2.782-3.879 4.387l4.77 15.36c-2.352.849-4.33 1.804-5.903 2.853C.872 25.722 0 28.848 0 30.983l.129 54.662v.59l.142.571c1.14 4.565 6.01 7.924 14.894 10.269C22.316 98.961 31.579 100 41.246 100c9.668 0 18.932-1.039 26.082-2.926C76.21 94.73 81.08 91.372 82.22 86.806l.143-.571v-.59l.13-54.65c-.001-2.149-.872-5.275-5.019-8.039zM4.851 34.922c1.78 1.636 4.802 3.271 9.779 4.628.806.22 1.647.427 2.519.623l3.147 10.136C12.729 51.713 7.14 53.855 4.9 56.36l-.049-21.438zm62.016 42.167a1.206 1.206 0 0 1-.505.823 1.239 1.239 0 0 1-.41.178 1.204 1.204 0 0 1-1.08-.271 1.163 1.163 0 0 1-.196-.216l-.451-.655-.418-.604-1.407-2.032a1.274 1.274 0 0 0-1.541-.134l-1.927 1.266-.602.398-.896.588-1.544 1.015-3.002 1.975c-.615.406-.802.929-.769 1.062l.882 1.36c.021.031.033.067.055.101.018.037.038.072.054.11.016.036.023.077.034.116.011.038.024.074.03.112.008.039.008.08.013.119.002.038.009.075.008.113-.002.041-.008.08-.013.119-.006.035-.006.073-.014.11-.007.04-.021.075-.033.113-.01.037-.021.076-.033.109-.015.036-.036.069-.054.104-.021.034-.036.069-.057.102-.021.033-.049.062-.075.093-.025.031-.047.062-.077.091a.746.746 0 0 1-.095.078c-.028.024-.054.052-.086.072-.004.001-.007.003-.008.005l-.007.006a.468.468 0 0 1-.079.042c-.023.013-.047.029-.072.04-.031.013-.061.023-.09.034-.027.008-.049.02-.075.027a.607.607 0 0 1-.107.024.302.302 0 0 0-.061.015c-.057.008-.114.01-.171.01-.051 0-.099-.002-.147-.008l-.043-.008c-.034-.006-.068-.011-.104-.019-.017-.004-.033-.012-.051-.017a2.954 2.954 0 0 1-.088-.027c-.018-.008-.036-.017-.056-.024-.026-.013-.054-.023-.078-.037-.021-.008-.037-.022-.057-.032-.002 0-.005-.003-.008-.007-.021-.014-.043-.024-.064-.037-.019-.013-.035-.029-.054-.043-.023-.019-.044-.031-.064-.051a.824.824 0 0 1-.05-.052c-.02-.021-.04-.038-.057-.058-.017-.021-.029-.04-.045-.058a1.39 1.39 0 0 1-.046-.061l-2.235-3.349a3.607 3.607 0 0 1-.45-3.059 3.585 3.585 0 0 1 1.305-1.851c.054-.042.106-.083.163-.12l.48-.318 7.443-4.904c1.661-1.095 3.929-.654 5.061.982l1.024 1.481.044.058.487.701c.1.108.191.231.279.356l.326.48.425.623c.061.09.109.173.151.258l1.184 1.713c.186.271.247.577.204.87zm-26.799-6.047l.931 3.109.146.489.066.22a1.2 1.2 0 0 1-.116.953 1.218 1.218 0 0 1-.791.767c-.002 0-.006.005-.01.005a1.212 1.212 0 0 1-.673 0 1.207 1.207 0 0 1-.832-.82l-.111-.376-.211-.718-.144-.483-.03-.103c-.053-.176-.639-.468-1.411-.284l-2.196.523-2.761.658L27.653 76c-.121.029-.23.081-.332.14-.439.258-.684.77-.584 1.287.003.018.001.03.006.043l.008.036c.078.332.133.577.169.74.015.056.024.109.033.161.001.009.005.017.006.021h-.001v.009L27.329 80c.16.66.76 1.122 1.316 1.011l2.171-.439a1.21 1.21 0 0 1 .481 2.371l-2.173.44a3.288 3.288 0 0 1-.645.064c-1.602 0-3.1-1.187-3.505-2.888l-.537-2.255c-.018-.074-.038-.152-.057-.235l-.074-.311-.279-1.177-.127-.535-.001-.006-.035-.152-.111-.473-.094-.389a3.634 3.634 0 0 1 2.691-4.372l7.494-1.788 1.738-.411c1.064-.255 2.16-.008 3.02.586a3.757 3.757 0 0 1 1.466 2.001zm-7.981-3.654a1.21 1.21 0 0 1-1.712-.018l-1.35-1.379a1.038 1.038 0 0 1-.189-.154l-2.013-2.053c-.485-.493-1.335-.525-1.855-.07l-4.205 3.682-2.935 2.57c-.455.396-.68.778-.755.985.129.174.213.337.268.487l.079.09a1.21 1.21 0 1 1-1.816 1.6l-1.802-2.039a3.592 3.592 0 0 1-.896-2.631 3.601 3.601 0 0 1 1.225-2.492l.076-.066 7.066-6.186a3.692 3.692 0 0 1 1.686-.829 3.854 3.854 0 0 1 1.517-.013 3.693 3.693 0 0 1 1.974 1.04l5.653 5.763a1.211 1.211 0 0 1-.016 1.713zM54.8 58.803c1.902.499 3.129 2.474 2.739 4.397l-.552 2.722a1.211 1.211 0 0 1-2.373-.484l.555-2.719c.137-.679-.312-1.399-.982-1.577l-.123-.03c-.028-.008-.057-.008-.082-.016l-4.743-1.245a1.208 1.208 0 0 0-1.478.862l-1.068 4.056a3.78 3.78 0 0 1-1.72 2.288c-.523.302-1.1.461-1.676.461a3.29 3.29 0 0 1-.817-.107l-2.114-.562a.82.82 0 0 1-.155-.057c-.024-.01-.05-.017-.073-.026-.049-.024-.091-.055-.134-.084-.022-.014-.048-.027-.068-.042-.04-.031-.073-.068-.109-.104-.02-.021-.043-.036-.062-.059-.032-.036-.058-.079-.086-.12-.015-.023-.035-.042-.049-.068a1.18 1.18 0 0 1-.06-.131c-.012-.027-.028-.054-.038-.08-.018-.049-.024-.098-.036-.148-.005-.027-.015-.052-.019-.077-.008-.057-.006-.113-.006-.17 0-.026-.006-.047-.004-.069.004-.057.017-.116.028-.175.004-.023.004-.044.01-.068v-.001l1.684-6.392a3.87 3.87 0 0 1 .249-.672 3.643 3.643 0 0 1 4.185-1.916l7.293 1.916 1.884.497zm22.789-2.443c-4.007-4.481-18.757-7.806-36.345-7.806-3.783 0-7.435.152-10.877.44l-2.213-7.132c4.095.391 8.51.596 13.09.596 10.441 0 19.9-.938 26.644-2.65 4.485-1.137 7.736-2.58 9.75-4.321l-.049 20.873zM41.244 20.714c19.809 0 35.921 4.46 36.394 10.016.003.043.005.086.005.13-.11 2.594-3.775 4.932-10.349 6.598-6.554 1.664-15.805 2.579-26.05 2.579-4.966 0-9.635-.244-13.871-.689l-.925-2.978c4.389.549 9.477.846 14.794.846 7.355 0 14.284-.564 19.506-1.584 6.112-1.193 8.961-2.769 8.961-4.954v-.002c-.002-1.778-1.864-3.124-5.856-4.228a1.204 1.204 0 0 0-1.489.841 1.208 1.208 0 0 0 .844 1.491c3.199.885 3.918 1.676 4.056 1.881a.07.07 0 0 1 .01.019c-.134.219-1.198 1.514-7.559 2.688-5.005.919-11.564 1.428-18.473 1.428-5.647 0-11.06-.34-15.585-.967l-1.073-3.453-2.521-8.124c5.572-.976 12.143-1.538 19.181-1.538zM10.562 1.737c1.536-.476 2.988-.197 3.272.621.002.008.007.018.011.028.26.841-.786 1.913-2.34 2.395-1.553.482-3.024.192-3.285-.648l-.006-.032c-.226-.834.813-1.887 2.348-2.364zm1.795 22.995l1.264 4.079c-.458.458-.725.952-.811 1.488a2.29 2.29 0 0 0-.032.382c0 1.126.76 2.092 2.332 2.926l1.205 3.879c-7.067-1.762-11.364-4.31-11.372-7.241v-.008-.016c.531-2.057 3.213-3.943 7.414-5.489z"></path></g><!----></svg>