<svg data-v-423bf9ae="" xmlns="http://www.w3.org/2000/svg" viewBox="0 0 385.9693166257163 60" class="font"><!----><!----><!----><g data-v-423bf9ae="" id="2fa265ba-3296-48d4-83fa-f7fde1d75d11" fill="black" transform="matrix(5.410279273986816,0,0,5.410279273986816,-7.1956682205200195,-14.5536527633667)"><path d="M6.67 8.09L6.67 8.09L6.67 8.09Q7.06 8.20 7.45 8.40L7.45 8.40L7.45 8.40Q7.83 8.61 8.13 8.90L8.13 8.90L8.13 8.90Q8.43 9.20 8.61 9.59L8.61 9.59L8.61 9.59Q8.80 9.98 8.80 10.46L8.80 10.46L8.80 10.46Q8.80 11.03 8.51 11.60L8.51 11.60L8.51 11.60Q8.22 12.17 7.67 12.63L7.67 12.63L7.67 12.63Q7.12 13.08 6.30 13.36L6.30 13.36L6.30 13.36Q5.49 13.64 4.44 13.64L4.44 13.64L1.33 13.64L1.33 3.63L4.76 3.63L4.76 3.63Q5.65 3.63 6.33 3.80L6.33 3.80L6.33 3.80Q7 3.98 7.45 4.28L7.45 4.28L7.45 4.28Q7.90 4.58 8.13 4.98L8.13 4.98L8.13 4.98Q8.35 5.37 8.35 5.82L8.35 5.82L8.35 5.82Q8.35 6.18 8.22 6.50L8.22 6.50L8.22 6.50Q8.08 6.82 7.85 7.10L7.85 7.10L7.85 7.10Q7.62 7.38 7.31 7.63L7.31 7.63L7.31 7.63Q7 7.88 6.67 8.09ZM3.38 9.09L3.38 12.30L4.61 12.30L4.61 12.30Q5.15 12.30 5.54 12.15L5.54 12.15L5.54 12.15Q5.93 12.00 6.18 11.77L6.18 11.77L6.18 11.77Q6.43 11.53 6.55 11.23L6.55 11.23L6.55 11.23Q6.67 10.92 6.67 10.60L6.67 10.60L6.67 10.60Q6.67 10.21 6.51 9.92L6.51 9.92L6.51 9.92Q6.35 9.63 6.07 9.45L6.07 9.45L6.07 9.45Q5.80 9.26 5.41 9.18L5.41 9.18L5.41 9.18Q5.02 9.09 4.56 9.09L4.56 9.09L3.38 9.09ZM3.38 7.81L5.49 7.81L5.49 7.81Q5.86 7.56 6.09 7.18L6.09 7.18L6.09 7.18Q6.32 6.80 6.32 6.33L6.32 6.33L6.32 6.33Q6.32 6.02 6.20 5.77L6.20 5.77L6.20 5.77Q6.08 5.52 5.84 5.34L5.84 5.34L5.84 5.34Q5.61 5.17 5.28 5.07L5.28 5.07L5.28 5.07Q4.95 4.98 4.53 4.98L4.53 4.98L3.38 4.98L3.38 7.81ZM14.54 12.58L14.54 12.58L14.54 12.58Q14.35 12.75 14.09 12.96L14.09 12.96L14.09 12.96Q13.84 13.17 13.53 13.35L13.53 13.35L13.53 13.35Q13.22 13.53 12.87 13.65L12.87 13.65L12.87 13.65Q12.51 13.78 12.12 13.78L12.12 13.78L12.12 13.78Q11.69 13.78 11.34 13.62L11.34 13.62L11.34 13.62Q10.99 13.45 10.74 13.18L10.74 13.18L10.74 13.18Q10.49 12.90 10.36 12.53L10.36 12.53L10.36 12.53Q10.23 12.16 10.23 11.76L10.23 11.76L10.23 11.76Q10.23 11.27 10.44 10.82L10.44 10.82L10.44 10.82Q10.65 10.38 11.11 10.04L11.11 10.04L11.11 10.04Q11.57 9.69 12.31 9.49L12.31 9.49L12.31 9.49Q13.05 9.29 14.10 9.29L14.10 9.29L14.49 9.29L14.49 8.80L14.49 8.80Q14.49 8.22 14.12 7.90L14.12 7.90L14.12 7.90Q13.75 7.59 13.15 7.59L13.15 7.59L13.15 7.59Q12.91 7.59 12.63 7.65L12.63 7.65L12.63 7.65Q12.35 7.70 12.07 7.81L12.07 7.81L12.07 7.81Q11.79 7.92 11.53 8.06L11.53 8.06L11.53 8.06Q11.27 8.20 11.05 8.36L11.05 8.36L10.92 8.29L10.56 7L10.56 7Q11.42 6.58 12.16 6.42L12.16 6.42L12.16 6.42Q12.91 6.26 13.60 6.26L13.60 6.26L13.60 6.26Q14.25 6.26 14.78 6.39L14.78 6.39L14.78 6.39Q15.32 6.51 15.70 6.78L15.70 6.78L15.70 6.78Q16.08 7.05 16.29 7.49L16.29 7.49L16.29 7.49Q16.50 7.92 16.50 8.52L16.50 8.52L16.50 11.66L16.50 11.66Q16.50 11.77 16.52 11.89L16.52 11.89L16.52 11.89Q16.54 12.02 16.59 12.12L16.59 12.12L16.59 12.12Q16.65 12.22 16.74 12.29L16.74 12.29L16.74 12.29Q16.84 12.35 16.99 12.35L16.99 12.35L16.99 12.35Q17.09 12.35 17.21 12.33L17.21 12.33L17.21 12.33Q17.32 12.31 17.45 12.26L17.45 12.26L17.45 13.17L17.45 13.17Q17.04 13.46 16.64 13.62L16.64 13.62L16.64 13.62Q16.23 13.78 15.85 13.78L15.85 13.78L15.85 13.78Q15.57 13.78 15.37 13.69L15.37 13.69L15.37 13.69Q15.16 13.60 15.00 13.44L15.00 13.44L15.00 13.44Q14.85 13.28 14.73 13.06L14.73 13.06L14.73 13.06Q14.62 12.84 14.54 12.58ZM14.49 11.70L14.49 10.11L14.14 10.11L14.14 10.11Q13.51 10.11 13.11 10.20L13.11 10.20L13.11 10.20Q12.72 10.29 12.50 10.45L12.50 10.45L12.50 10.45Q12.28 10.61 12.20 10.83L12.20 10.83L12.20 10.83Q12.12 11.05 12.12 11.30L12.12 11.30L12.12 11.30Q12.12 11.57 12.20 11.76L12.20 11.76L12.20 11.76Q12.27 11.96 12.40 12.09L12.40 12.09L12.40 12.09Q12.54 12.22 12.71 12.29L12.71 12.29L12.71 12.29Q12.89 12.35 13.10 12.35L13.10 12.35L13.10 12.35Q13.39 12.35 13.73 12.22L13.73 12.22L13.73 12.22Q14.07 12.08 14.49 11.70L14.49 11.70ZM18.82 13.64L18.82 6.40L20.49 6.40L20.75 8.54L20.75 8.54Q20.86 8.35 20.96 8.15L20.96 8.15L20.96 8.15Q21.07 7.96 21.17 7.78L21.17 7.78L21.17 7.78Q21.27 7.61 21.35 7.47L21.35 7.47L21.35 7.47Q21.43 7.33 21.49 7.26L21.49 7.26L21.49 7.26Q21.63 7.05 21.80 6.86L21.80 6.86L21.80 6.86Q21.96 6.68 22.17 6.55L22.17 6.55L22.17 6.55Q22.37 6.41 22.62 6.34L22.62 6.34L22.62 6.34Q22.87 6.26 23.16 6.26L23.16 6.26L23.16 6.26Q23.36 6.26 23.58 6.31L23.58 6.31L23.58 6.31Q23.80 6.36 23.97 6.47L23.97 6.47L23.75 8.30L23.75 8.30Q23.62 8.26 23.41 8.25L23.41 8.25L23.41 8.25Q23.21 8.24 23.06 8.24L23.06 8.24L23.06 8.24Q22.67 8.24 22.35 8.34L22.35 8.34L22.35 8.34Q22.02 8.44 21.75 8.62L21.75 8.62L21.75 8.62Q21.47 8.79 21.25 9.03L21.25 9.03L21.25 9.03Q21.02 9.27 20.84 9.54L20.84 9.54L20.84 13.64L18.82 13.64ZM33.24 11.53L33.24 7.85L33.24 7.85Q32.85 7.68 32.55 7.64L32.55 7.64L32.55 7.64Q32.25 7.59 32.05 7.59L32.05 7.59L32.05 7.59Q31.54 7.59 31.15 7.78L31.15 7.78L31.15 7.78Q30.77 7.98 30.51 8.32L30.51 8.32L30.51 8.32Q30.25 8.65 30.12 9.11L30.12 9.11L30.12 9.11Q29.98 9.57 29.98 10.09L29.98 10.09L29.98 10.09Q29.98 10.58 30.10 10.99L30.10 10.99L30.10 10.99Q30.21 11.40 30.43 11.71L30.43 11.71L30.43 11.71Q30.64 12.01 30.94 12.18L30.94 12.18L30.94 12.18Q31.23 12.35 31.60 12.35L31.60 12.35L31.60 12.35Q32.03 12.35 32.45 12.13L32.45 12.13L32.45 12.13Q32.87 11.92 33.24 11.53L33.24 11.53ZM33.24 6.42L33.24 2.69L35.25 2.69L35.25 13.64L33.56 13.64L33.32 12.48L33.32 12.48Q33.07 12.70 32.79 12.93L32.79 12.93L32.79 12.93Q32.51 13.16 32.19 13.35L32.19 13.35L32.19 13.35Q31.86 13.54 31.49 13.66L31.49 13.66L31.49 13.66Q31.12 13.78 30.71 13.78L30.71 13.78L30.71 13.78Q30.05 13.78 29.53 13.49L29.53 13.49L29.53 13.49Q29.01 13.20 28.65 12.72L28.65 12.72L28.65 12.72Q28.29 12.24 28.10 11.62L28.10 11.62L28.10 11.62Q27.90 11.00 27.90 10.34L27.90 10.34L27.90 10.34Q27.90 9.47 28.22 8.73L28.22 8.73L28.22 8.73Q28.54 7.98 29.09 7.43L29.09 7.43L29.09 7.43Q29.65 6.88 30.39 6.57L30.39 6.57L30.39 6.57Q31.13 6.26 31.99 6.26L31.99 6.26L31.99 6.26Q32.35 6.26 32.69 6.31L32.69 6.31L32.69 6.31Q33.02 6.36 33.24 6.42L33.24 6.42ZM40.59 13.78L40.59 13.78L40.59 13.78Q39.70 13.78 39.02 13.49L39.02 13.49L39.02 13.49Q38.35 13.21 37.90 12.72L37.90 12.72L37.90 12.72Q37.44 12.23 37.21 11.58L37.21 11.58L37.21 11.58Q36.98 10.94 36.98 10.22L36.98 10.22L36.98 10.22Q36.98 9.39 37.28 8.67L37.28 8.67L37.28 8.67Q37.58 7.95 38.12 7.41L38.12 7.41L38.12 7.41Q38.66 6.88 39.41 6.57L39.41 6.57L39.41 6.57Q40.17 6.26 41.08 6.26L41.08 6.26L41.08 6.26Q41.97 6.26 42.65 6.55L42.65 6.55L42.65 6.55Q43.33 6.84 43.78 7.32L43.78 7.32L43.78 7.32Q44.24 7.81 44.47 8.46L44.47 8.46L44.47 8.46Q44.71 9.11 44.71 9.84L44.71 9.84L44.71 9.84Q44.71 10.68 44.40 11.40L44.40 11.40L44.40 11.40Q44.10 12.12 43.56 12.65L43.56 12.65L43.56 12.65Q43.01 13.18 42.26 13.48L42.26 13.48L42.26 13.48Q41.50 13.78 40.59 13.78ZM40.89 12.46L40.89 12.46L40.89 12.46Q41.26 12.46 41.58 12.30L41.58 12.30L41.58 12.30Q41.90 12.14 42.13 11.84L42.13 11.84L42.13 11.84Q42.36 11.54 42.49 11.11L42.49 11.11L42.49 11.11Q42.62 10.68 42.62 10.13L42.62 10.13L42.62 10.13Q42.62 9.61 42.49 9.15L42.49 9.15L42.49 9.15Q42.37 8.68 42.14 8.34L42.14 8.34L42.14 8.34Q41.90 7.99 41.57 7.79L41.57 7.79L41.57 7.79Q41.23 7.59 40.80 7.59L40.80 7.59L40.80 7.59Q40.41 7.59 40.09 7.75L40.09 7.75L40.09 7.75Q39.77 7.92 39.55 8.22L39.55 8.22L39.55 8.22Q39.32 8.53 39.19 8.97L39.19 8.97L39.19 8.97Q39.07 9.40 39.07 9.93L39.07 9.93L39.07 9.93Q39.07 10.47 39.19 10.93L39.19 10.93L39.19 10.93Q39.32 11.40 39.56 11.73L39.56 11.73L39.56 11.73Q39.79 12.07 40.13 12.26L40.13 12.26L40.13 12.26Q40.46 12.46 40.89 12.46ZM55.25 13.64L49.56 13.64L49.56 3.63L51.62 3.63L51.62 12.30L55.50 12.30L55.25 13.64ZM63.31 12.01L63.31 12.93L63.31 12.93Q62.97 13.17 62.60 13.33L62.60 13.33L62.60 13.33Q62.23 13.49 61.86 13.59L61.86 13.59L61.86 13.59Q61.48 13.69 61.11 13.74L61.11 13.74L61.11 13.74Q60.74 13.78 60.41 13.78L60.41 13.78L60.41 13.78Q59.59 13.78 58.91 13.55L58.91 13.55L58.91 13.55Q58.24 13.32 57.75 12.87L57.75 12.87L57.75 12.87Q57.26 12.41 57.00 11.76L57.00 11.76L57.00 11.76Q56.73 11.11 56.73 10.27L56.73 10.27L56.73 10.27Q56.73 9.34 57.05 8.60L57.05 8.60L57.05 8.60Q57.37 7.85 57.90 7.33L57.90 7.33L57.90 7.33Q58.43 6.82 59.13 6.54L59.13 6.54L59.13 6.54Q59.83 6.26 60.60 6.26L60.60 6.26L60.60 6.26Q61.25 6.26 61.80 6.47L61.80 6.47L61.80 6.47Q62.36 6.67 62.76 7.08L62.76 7.08L62.76 7.08Q63.16 7.49 63.39 8.09L63.39 8.09L63.39 8.09Q63.62 8.69 63.62 9.48L63.62 9.48L63.62 9.48Q63.62 9.71 63.59 9.93L63.59 9.93L63.59 9.93Q63.57 10.14 63.54 10.32L63.54 10.32L58.81 10.32L58.81 10.32Q58.81 10.83 58.99 11.22L58.99 11.22L58.99 11.22Q59.17 11.60 59.50 11.85L59.50 11.85L59.50 11.85Q59.83 12.11 60.30 12.23L60.30 12.23L60.30 12.23Q60.77 12.35 61.34 12.35L61.34 12.35L61.34 12.35Q61.52 12.35 61.76 12.34L61.76 12.34L61.76 12.34Q61.99 12.33 62.25 12.29L62.25 12.29L62.25 12.29Q62.51 12.25 62.78 12.18L62.78 12.18L62.78 12.18Q63.05 12.11 63.31 12.01L63.31 12.01ZM58.81 9.50L61.77 9.50L61.77 9.50Q61.77 9.02 61.66 8.66L61.66 8.66L61.66 8.66Q61.55 8.30 61.36 8.06L61.36 8.06L61.36 8.06Q61.17 7.82 60.91 7.70L60.91 7.70L60.91 7.70Q60.65 7.59 60.35 7.59L60.35 7.59L60.35 7.59Q60.01 7.59 59.73 7.72L59.73 7.72L59.73 7.72Q59.45 7.86 59.25 8.11L59.25 8.11L59.25 8.11Q59.04 8.37 58.93 8.72L58.93 8.72L58.93 8.72Q58.81 9.06 58.81 9.50L58.81 9.50ZM60.87 5.17L59.36 5.17L60.74 2.69L62.79 2.69L60.87 5.17ZM68.56 13.78L68.56 13.78L68.56 13.78Q67.66 13.78 66.99 13.49L66.99 13.49L66.99 13.49Q66.32 13.21 65.86 12.72L65.86 12.72L65.86 12.72Q65.41 12.23 65.18 11.58L65.18 11.58L65.18 11.58Q64.95 10.94 64.95 10.22L64.95 10.22L64.95 10.22Q64.95 9.39 65.25 8.67L65.25 8.67L65.25 8.67Q65.54 7.95 66.08 7.41L66.08 7.41L66.08 7.41Q66.62 6.88 67.38 6.57L67.38 6.57L67.38 6.57Q68.13 6.26 69.05 6.26L69.05 6.26L69.05 6.26Q69.94 6.26 70.62 6.55L70.62 6.55L70.62 6.55Q71.29 6.84 71.75 7.32L71.75 7.32L71.75 7.32Q72.21 7.81 72.44 8.46L72.44 8.46L72.44 8.46Q72.67 9.11 72.67 9.84L72.67 9.84L72.67 9.84Q72.67 10.68 72.37 11.40L72.37 11.40L72.37 11.40Q72.06 12.12 71.52 12.65L71.52 12.65L71.52 12.65Q70.98 13.18 70.22 13.48L70.22 13.48L70.22 13.48Q69.47 13.78 68.56 13.78ZM68.85 12.46L68.85 12.46L68.85 12.46Q69.23 12.46 69.55 12.30L69.55 12.30L69.55 12.30Q69.86 12.14 70.10 11.84L70.10 11.84L70.10 11.84Q70.33 11.54 70.45 11.11L70.45 11.11L70.45 11.11Q70.58 10.68 70.58 10.13L70.58 10.13L70.58 10.13Q70.58 9.61 70.46 9.15L70.46 9.15L70.46 9.15Q70.33 8.68 70.10 8.34L70.10 8.34L70.10 8.34Q69.87 7.99 69.53 7.79L69.53 7.79L69.53 7.79Q69.19 7.59 68.76 7.59L68.76 7.59L68.76 7.59Q68.37 7.59 68.06 7.75L68.06 7.75L68.06 7.75Q67.74 7.92 67.51 8.22L67.51 8.22L67.51 8.22Q67.29 8.53 67.16 8.97L67.16 8.97L67.16 8.97Q67.03 9.40 67.03 9.93L67.03 9.93L67.03 9.93Q67.03 10.47 67.16 10.93L67.16 10.93L67.16 10.93Q67.29 11.40 67.52 11.73L67.52 11.73L67.52 11.73Q67.76 12.07 68.09 12.26L68.09 12.26L68.09 12.26Q68.43 12.46 68.85 12.46Z"></path></g><!----><!----></svg>